<?xml version="1.0" encoding="utf-8"?>
<!-- Generator: Adobe Illustrator 19.1.0, SVG Export Plug-In . SVG Version: 6.00 Build 0)  -->
<svg version="1.1" xmlns="http://www.w3.org/2000/svg" xmlns:xlink="http://www.w3.org/1999/xlink" x="0px" y="0px"
	 viewBox="-43 230.1 823.3 332.9" style="enable-background:new -43 230.1 823.3 332.9;" xml:space="preserve">
<style type="text/css">
	.st0{fill:#94D8EC;}
	.st1{fill:#F1EB5A;}
	.st2{fill:#B0D575;}
	.st3{fill:#E25010;}
</style>
<g id="Layer_2">
	
		<rect x="-23.8" y="253.5" transform="matrix(0.715 0.6991 -0.6991 0.715 209.5885 71.8994)" class="st0" width="80.9" height="79.1"/>
	<rect x="-18.4" y="371" transform="matrix(0.731 0.6823 -0.6823 0.731 281.358 97.8136)" class="st1" width="70" height="69.5"/>
	<rect x="-15.5" y="318" transform="matrix(0.8604 -0.5095 0.5095 0.8604 -178.4415 61.4715)" class="st2" width="77" height="77"/>
</g>
<g id="Layer_1">
	<g>
		<path class="st3" d="M47.6,440.2V256.1h50.9c17.2,0,32.6,1.9,46.1,5.8c13.5,3.9,24.8,9.7,34.1,17.4c9.3,7.7,16.3,17.3,21.2,28.8
			c4.9,11.5,7.3,24.8,7.3,39.9c0,15.1-2.4,28.4-7.3,39.9c-4.9,11.5-11.9,21.1-21.2,28.8c-9.3,7.7-20.6,13.6-34.1,17.5
			c-13.5,4-28.8,5.9-46.1,5.9H47.6z M75.1,418.1h23.4c26.8,0,47-6.1,60.6-18.4c13.7-12.2,20.5-29.5,20.5-51.8
			c0-22.3-6.8-39.5-20.5-51.6c-13.7-12.1-33.9-18.2-60.6-18.2H75.1V418.1z M82.3,411.5V284.8h16.2c23.3,0,41.4,5.3,54.3,15.9
			c12.9,10.6,19.4,26.4,19.4,47.3c0,21-6.5,36.8-19.4,47.5c-12.9,10.7-31,16-54.3,16H82.3z M106.2,387.7c13.8,0,24.4-3.3,31.9-9.8
			c7.5-6.5,11.3-16.5,11.3-30c0-13.4-3.8-23.4-11.3-29.8c-7.5-6.4-18.2-9.7-31.9-9.7V387.7z"/>
		<path class="st3" d="M365,326.2c0,12.7-2.2,23.5-6.6,32.4c-4.4,8.9-10.4,16.2-18,21.7c-7.6,5.5-16.5,9.6-26.7,12.1
			c-10.2,2.6-21.1,3.9-32.9,3.9v43.9h-58.6V256.1h58.6c11.7,0,22.7,1.3,32.9,3.9c10.2,2.6,19.1,6.6,26.7,12.1
			c7.6,5.5,13.6,12.7,18,21.7C362.8,302.7,365,313.5,365,326.2z M338.4,326.2c0-8.3-1.4-15.5-4.3-21.5c-2.8-6.1-6.8-11-12-14.9
			c-5.1-3.9-11.2-6.8-18.3-8.7c-7.1-1.9-14.7-2.9-23-2.9h-31.1v140h7.2v-43.9h23.9c8.3,0,15.9-1,23-2.9c7.1-1.9,13.2-4.8,18.3-8.7
			c5.1-3.9,9.1-8.8,12-14.9C336.9,341.6,338.4,334.5,338.4,326.2z M330.7,326.2c0,7.9-1.4,14.5-4.1,19.9c-2.8,5.3-6.4,9.6-11,12.7
			c-4.6,3.1-9.9,5.4-15.8,6.8c-6,1.4-12.2,2.1-18.8,2.1h-23.9v-82.8h23.9c6.6,0,12.9,0.7,18.8,2.1c6,1.4,11.2,3.6,15.8,6.8
			c4.6,3.1,8.3,7.4,11,12.7C329.3,311.6,330.7,318.3,330.7,326.2z M280.9,346.6h2.5c7.7,0,13.2-1.8,16.6-5.4c3.4-3.6,5.1-8.6,5.1-15
			c0-6.4-1.7-11.5-5.1-15c-3.4-3.6-8.9-5.4-16.6-5.4h-2.5V346.6z"/>
		<path class="st3" d="M363.7,256.1h62.2l21.2,64.3l21.2-64.3h40.2l21.2,64.3l21.2-64.3h62.2l-60.5,184.1h-45.7l-18.4-55.8
			l-18.4,55.8h-45.7L363.7,256.1z M451.7,418.1l36.6-115.7l36.6,115.7h6.9l45.9-140h-7.4l-41.8,127.3l-40.2-127.3l-40.2,127.3
			l-41.8-127.3h-7.4l45.9,140H451.7z"/>
		<path class="st3" d="M759.7,326.2c0,12.7-2.2,23.5-6.6,32.4c-4.4,8.9-10.4,16.2-18,21.7c-7.6,5.5-16.5,9.6-26.7,12.1
			c-10.2,2.6-21.1,3.9-32.9,3.9v43.9H617V256.1h58.6c11.7,0,22.7,1.3,32.9,3.9c10.2,2.6,19.1,6.6,26.7,12.1
			c7.6,5.5,13.6,12.7,18,21.7C757.5,302.7,759.7,313.5,759.7,326.2z M733.1,326.2c0-8.3-1.4-15.5-4.3-21.5c-2.8-6.1-6.8-11-12-14.9
			c-5.1-3.9-11.2-6.8-18.3-8.7c-7.1-1.9-14.7-2.9-23-2.9h-31.1v140h7.2v-43.9h23.9c8.3,0,15.9-1,23-2.9c7.1-1.9,13.2-4.8,18.3-8.7
			c5.1-3.9,9.1-8.8,12-14.9C731.6,341.6,733.1,334.5,733.1,326.2z M725.4,326.2c0,7.9-1.4,14.5-4.1,19.9c-2.8,5.3-6.4,9.6-11,12.7
			c-4.6,3.1-9.9,5.4-15.8,6.8c-6,1.4-12.2,2.1-18.8,2.1h-23.9v-82.8h23.9c6.6,0,12.9,0.7,18.8,2.1c6,1.4,11.2,3.6,15.8,6.8
			c4.6,3.1,8.3,7.4,11,12.7C724,311.6,725.4,318.3,725.4,326.2z M675.6,346.6h2.5c7.7,0,13.2-1.8,16.6-5.4c3.4-3.6,5.1-8.6,5.1-15
			c0-6.4-1.7-11.5-5.1-15c-3.4-3.6-8.9-5.4-16.6-5.4h-2.5V346.6z"/>
	</g>
	<g>
		<path d="M52.2,528.3v-41.7h9.2c4.4,0,7.4,0.9,9.2,2.7c1.8,1.8,2.7,4.9,2.7,9.2v16.4c0,4.6-0.9,8-2.7,10.1s-4.9,3.3-9.2,3.3H52.2z
			 M58.2,523.8h3.3c1,0,1.8-0.1,2.5-0.3c0.7-0.2,1.3-0.5,1.7-1c0.4-0.5,0.8-0.9,1-1.3c0.2-0.4,0.4-1.1,0.5-2
			c0.1-0.9,0.2-1.6,0.2-2.2c0-0.6,0-1.5,0-2.7c0-0.4,0-0.7,0-0.9V500c0-0.8,0-1.4,0-1.8c0-0.4,0-1-0.1-1.6c0-0.6-0.1-1.1-0.2-1.5
			c-0.1-0.4-0.2-0.8-0.3-1.2c-0.1-0.4-0.3-0.8-0.5-1c-0.2-0.2-0.5-0.5-0.8-0.8c-0.3-0.3-0.7-0.5-1-0.6s-0.9-0.2-1.4-0.3
			c-0.5-0.1-1.1-0.1-1.8-0.1h-3.2V523.8z"/>
		<path d="M86.8,528.7c-1.4,0-2.7-0.2-3.8-0.7c-1.1-0.5-1.9-1.1-2.5-1.9c-0.6-0.8-1.1-1.8-1.5-3.1c-0.4-1.2-0.7-2.5-0.8-3.7
			c-0.1-1.2-0.2-2.7-0.3-4.4c0-1.3,0-2.6,0-3.9c0-1.6,0.2-2.9,0.3-4.1c0.2-1.2,0.4-2.4,0.8-3.5c0.4-1.1,0.9-2.1,1.6-2.8
			c0.6-0.7,1.5-1.3,2.5-1.8s2.3-0.7,3.7-0.7c1.3,0,2.4,0.2,3.4,0.5c1,0.3,1.8,0.8,2.4,1.5c0.6,0.7,1.2,1.4,1.6,2.2
			c0.4,0.8,0.7,1.8,1,3c0.2,1.2,0.4,2.3,0.5,3.5s0.1,2.4,0.1,3.9v0.7H83.8v1.5c0,0.2,0,0.5,0,1c0,0.6,0,1.2,0,1.8
			c0,0.6,0.1,1.2,0.1,1.8c0,0.6,0.1,1.2,0.3,1.7c0.1,0.5,0.3,1,0.5,1.4c0.2,0.4,0.5,0.7,0.8,1c0.4,0.2,0.8,0.3,1.3,0.3
			c0.6,0,1.1-0.1,1.5-0.4s0.7-0.6,0.9-1.1c0.2-0.5,0.3-1,0.4-1.4c0.1-0.5,0.1-1.1,0.1-1.8v-1.3h5.9v1.2c-0.1,3.2-0.9,5.6-2.3,7.2
			S89.7,528.7,86.8,528.7z M83.8,510.4h5.9v-1.8c0-0.8-0.1-1.5-0.1-2.1c-0.1-0.6-0.2-1.2-0.4-1.8s-0.5-1-0.9-1.3s-0.9-0.5-1.5-0.5
			c-0.6,0-1.1,0.2-1.5,0.5c-0.4,0.3-0.7,0.8-0.9,1.4c-0.2,0.6-0.3,1.2-0.4,1.8c-0.1,0.6-0.1,1.3-0.1,2.1V510.4z"/>
		<path d="M107.9,528.7c-2.5,0-4.4-0.7-5.9-2.2c-1.5-1.5-2.5-3.3-3-5.7l4.5-1.5c1.1,3,2.6,4.5,4.5,4.5c0.9,0,1.7-0.3,2.2-0.8
			c0.5-0.5,0.8-1.3,0.8-2.2c0-1.4-0.5-2.5-1.5-3.4l-6-4.5c-0.7-0.4-1.2-0.9-1.7-1.3c-0.4-0.4-0.9-0.9-1.4-1.5
			c-0.5-0.6-0.8-1.2-1.1-1.9c-0.2-0.7-0.4-1.5-0.4-2.3c0-2.5,0.8-4.5,2.4-5.8s3.8-2,6.5-2c1.3,0,2.5,0.2,3.5,0.6
			c1,0.4,1.9,1,2.6,1.7c0.7,0.7,1.3,1.6,1.7,2.5s0.8,1.9,1.1,3l-4.5,1.5c-0.2-0.6-0.4-1.1-0.7-1.5c-0.2-0.4-0.5-0.9-0.9-1.4
			c-0.4-0.5-0.8-0.9-1.3-1.2c-0.5-0.3-1-0.4-1.7-0.4c-0.9,0-1.7,0.3-2.2,0.8c-0.5,0.5-0.8,1.3-0.8,2.2c0,0.9,0.5,1.8,1.5,2.5l6,4.5
			c0.7,0.5,1.2,1,1.7,1.5c0.5,0.5,0.9,1.1,1.4,1.7s0.8,1.4,1,2.2s0.3,1.6,0.3,2.5c0,2.5-0.8,4.5-2.4,5.8S110.6,528.7,107.9,528.7z"
			/>
		<path d="M120.7,494v-6h6v6H120.7z M120.7,528.3v-29.8h6v29.8H120.7z"/>
		<path d="M141.8,537.2c-0.7,0-1.3,0-1.8,0c-0.5,0-1.1,0-1.9-0.1s-1.5-0.1-2-0.2c-0.5-0.1-1.2-0.2-1.9-0.3c-0.7-0.1-1.3-0.3-1.7-0.5
			s-0.9-0.5-1.3-0.8s-0.7-0.7-0.9-1.1c-0.2-0.4-0.3-0.9-0.3-1.4c0-1.6,0.4-2.9,1.2-4c0.8-1.1,1.9-2,3.2-2.6c-0.8-0.2-1.5-0.5-2.1-1
			c-0.6-0.4-0.9-1-0.9-1.6c0-0.3,0-0.5,0.1-0.8c0.1-0.3,0.1-0.6,0.2-0.8c0.1-0.2,0.2-0.5,0.4-0.8c0.2-0.3,0.3-0.6,0.4-0.7
			s0.3-0.4,0.5-0.7c0.2-0.3,0.4-0.5,0.5-0.7c0.1-0.1,0.3-0.3,0.5-0.6s0.4-0.5,0.4-0.5c-2-2.4-3-5.3-3-8.9c0-2.1,0.3-3.9,1-5.5
			c0.7-1.6,1.7-2.9,3-3.9c1.4-1,3-1.5,4.9-1.5c1.1,0,2.1,0.2,2.9,0.5c0.8,0.3,1.5,0.7,2,1.2c0.5,0.5,1,1.1,1.5,1.9
			c1.2-2.2,2.9-3.3,5-3.5c0,0,0.1,0,0.1,0s0.1,0,0.2,0s0.1,0,0.2,0v4.9c-0.1,0-0.2,0-0.4,0c-0.7,0-1.2,0-1.5,0s-0.7,0.1-1.1,0.2
			c-0.4,0.1-0.8,0.3-1,0.5c0.3,0.6,0.5,1.4,0.7,2.4s0.3,1.9,0.3,2.8c0,2.1-0.3,3.9-0.9,5.5s-1.6,2.9-3,3.8s-3,1.4-5,1.4l-3-0.3
			c0,0.1-0.1,0.2-0.2,0.4c-0.1,0.2-0.2,0.4-0.3,0.5c-0.1,0.1-0.1,0.3-0.2,0.5s-0.1,0.4-0.1,0.5c0,0.4,0.2,0.7,0.6,1
			c0.4,0.3,0.9,0.5,1.6,0.6c0.7,0.1,1.3,0.2,2,0.3c0.6,0.1,1.3,0.1,2.1,0.2c0.8,0,1.3,0.1,1.6,0.1c0.9,0.1,1.7,0.3,2.4,0.4
			c0.7,0.2,1.4,0.4,2.1,0.7c0.7,0.3,1.3,0.7,1.8,1.1c0.5,0.4,0.8,1,1.2,1.7s0.5,1.5,0.5,2.3c0,1.1-0.2,2.1-0.6,2.9
			c-0.4,0.9-0.9,1.6-1.5,2.1c-0.6,0.6-1.4,1-2.3,1.4c-0.9,0.4-1.8,0.6-2.8,0.8C144,537.1,142.9,537.2,141.8,537.2z M141.8,532.8
			c0.4,0,0.8,0,1.1,0s0.7,0,1.2-0.1c0.4,0,0.8-0.1,1.1-0.2c0.3-0.1,0.6-0.2,0.9-0.4c0.3-0.2,0.5-0.4,0.7-0.6
			c0.2-0.3,0.2-0.5,0.2-0.9c0-1.7-1.6-2.7-4.8-3l-4.9-0.6c-0.6,0.4-1.1,1.1-1.5,1.9c-0.4,0.8-0.6,1.7-0.6,2.6c0,0.2,0.1,0.5,0.3,0.6
			s0.4,0.3,0.8,0.4c0.3,0.1,0.7,0.2,1,0.2c0.3,0.1,0.8,0.1,1.2,0.1c0.5,0,0.9,0,1.2,0s0.7,0,1.2,0S141.6,532.8,141.8,532.8z
			 M140.3,515.3c2.5,0,3.7-2.1,3.7-6.3c0-0.9-0.1-1.6-0.2-2.4c-0.1-0.7-0.3-1.4-0.6-2.1s-0.7-1.2-1.2-1.6c-0.5-0.4-1.1-0.6-1.8-0.6
			c-0.7,0-1.3,0.2-1.9,0.6c-0.5,0.4-0.9,0.9-1.2,1.6c-0.3,0.7-0.4,1.4-0.5,2.1c-0.1,0.7-0.2,1.5-0.2,2.4
			C136.5,513.1,137.8,515.3,140.3,515.3z"/>
		<path d="M153.9,528.3v-29.8h6v3.2c0.9-0.8,1.6-1.4,2.2-1.8s1.3-0.8,2.3-1.2s2-0.6,3.2-0.6c1.3,0,2.3,0.5,3.1,1.4
			c0.8,0.9,1.2,2.1,1.2,3.4v25.4h-6V506c0-1-0.1-1.8-0.4-2.3c-0.3-0.5-0.9-0.7-1.8-0.7c-0.5,0-1,0.1-1.5,0.3s-0.9,0.4-1.1,0.6
			s-0.6,0.5-1.1,0.8v23.6H153.9z"/>
		<path d="M186.9,528.3v-41.7h10.4c6.9,0,10.4,4,10.4,11.9c0,3.4-0.9,6-2.7,7.8c-1.8,1.8-4.4,2.7-7.7,2.7h-4.5v19.4H186.9z
			 M192.8,504.5h1.5c1.3,0,2.5-0.1,3.3-0.2c0.9-0.2,1.6-0.4,2.3-0.9c0.7-0.4,1.1-1,1.4-1.8s0.4-1.8,0.4-3c0-1.5-0.1-2.7-0.3-3.6
			s-0.6-1.7-1.2-2.3c-0.6-0.6-1.3-1-2.3-1.2s-2.1-0.3-3.7-0.3h-1.5V504.5z"/>
		<path d="M215.8,528.7c-1.7,0-3.1-0.7-4.2-2.2c-1.2-1.4-1.7-3.1-1.7-4.8c0-1.4,0.2-2.8,0.7-3.9c0.5-1.2,1-2.1,1.5-2.8
			c0.5-0.7,1.4-1.4,2.7-2.2c1.3-0.8,2.2-1.3,2.9-1.5c0.7-0.3,1.8-0.7,3.4-1.4c0.3-0.1,0.5-0.2,0.6-0.3v-2.1c0-1.5-0.2-2.7-0.6-3.5
			c-0.4-0.8-1.2-1.2-2.3-1.2c-1,0-1.8,0.4-2.2,1.1s-0.7,1.7-0.8,2.9c0,0.2,0,0.4,0,0.8h-6c0-2.9,0.8-5.1,2.4-6.8
			c1.6-1.7,3.7-2.5,6.5-2.5c2.8,0,5,0.9,6.5,2.6s2.4,4,2.4,6.8v13.4c0,3.1,0.3,5.6,0.8,7.4h-5.9l-0.8-4.5c-0.3,0.6-0.6,1.1-0.8,1.4
			c-0.2,0.3-0.5,0.8-0.8,1.3c-0.4,0.5-0.7,0.9-1.1,1.2c-0.4,0.3-0.8,0.5-1.4,0.7C217.1,528.6,216.5,528.7,215.8,528.7z M218.8,523.8
			c0.4,0,0.8-0.1,1.2-0.4s0.7-0.5,0.9-0.7c0.2-0.2,0.4-0.5,0.7-0.9c0-0.1,0.1-0.1,0.1-0.2v-8.2c-0.2,0.2-0.7,0.4-1.2,0.8
			c-0.6,0.4-1,0.6-1.4,0.9s-0.8,0.5-1.2,0.9c-0.5,0.4-0.9,0.8-1.1,1.1c-0.3,0.4-0.5,0.8-0.7,1.3c-0.2,0.5-0.3,1.1-0.3,1.7
			C215.8,522.6,216.8,523.8,218.8,523.8z"/>
		<path d="M240.3,528.7c-2.3,0-4-0.6-5.1-1.8c-1.1-1.2-1.6-3-1.6-5.4V503h-3v-4.5h3v-10.4h6v10.4h4.5v4.5h-4.5v17.4
			c0,1.2,0.2,2.1,0.5,2.6c0.3,0.6,1,0.8,2,0.8c0.4,0,1.1-0.1,2-0.2v4.8C242.5,528.6,241.3,528.7,240.3,528.7z"/>
		<path d="M256.6,528.7c-2.3,0-4-0.6-5.1-1.8c-1.1-1.2-1.6-3-1.6-5.4V503h-3v-4.5h3v-10.4h6v10.4h4.5v4.5h-4.5v17.4
			c0,1.2,0.2,2.1,0.5,2.6c0.3,0.6,1,0.8,2,0.8c0.4,0,1.1-0.1,2-0.2v4.8C258.8,528.6,257.6,528.7,256.6,528.7z"/>
		<path d="M272.9,528.7c-1.4,0-2.7-0.2-3.8-0.7c-1.1-0.5-1.9-1.1-2.5-1.9c-0.6-0.8-1.1-1.8-1.5-3.1c-0.4-1.2-0.7-2.5-0.8-3.7
			c-0.1-1.2-0.2-2.7-0.3-4.4c0-1.3,0-2.6,0-3.9c0-1.6,0.2-2.9,0.3-4.1c0.2-1.2,0.4-2.4,0.8-3.5s0.9-2.1,1.6-2.8
			c0.6-0.7,1.5-1.3,2.5-1.8s2.3-0.7,3.7-0.7c1.3,0,2.4,0.2,3.4,0.5c1,0.3,1.8,0.8,2.4,1.5c0.6,0.7,1.2,1.4,1.6,2.2
			c0.4,0.8,0.7,1.8,1,3s0.4,2.3,0.5,3.5s0.1,2.4,0.1,3.9v0.7H270v1.5c0,0.2,0,0.5,0,1c0,0.6,0,1.2,0,1.8c0,0.6,0.1,1.2,0.1,1.8
			c0,0.6,0.1,1.2,0.3,1.7c0.1,0.5,0.3,1,0.5,1.4c0.2,0.4,0.5,0.7,0.8,1s0.8,0.3,1.3,0.3c0.6,0,1.1-0.1,1.5-0.4
			c0.4-0.2,0.7-0.6,0.9-1.1c0.2-0.5,0.3-1,0.4-1.4c0.1-0.5,0.1-1.1,0.1-1.8v-1.3h5.9v1.2c-0.1,3.2-0.9,5.6-2.3,7.2
			C278.1,527.9,275.9,528.7,272.9,528.7z M270,510.4h5.9v-1.8c0-0.8-0.1-1.5-0.1-2.1c-0.1-0.6-0.2-1.2-0.4-1.8
			c-0.2-0.6-0.5-1-0.9-1.3c-0.4-0.3-0.9-0.5-1.5-0.5c-0.6,0-1.1,0.2-1.5,0.5c-0.4,0.3-0.7,0.8-0.9,1.4c-0.2,0.6-0.3,1.2-0.4,1.8
			c-0.1,0.6-0.1,1.3-0.1,2.1V510.4z"/>
		<path d="M286.2,528.3v-29.8h6v4c0.6-1.2,1.5-2.2,2.6-3.1c1.2-0.9,2.4-1.3,3.8-1.3c0,0,0.4,0,1,0.1v6.6c-1.1-0.4-2.2-0.7-3.3-0.7
			c-1.2,0-2.2,0.4-3,1.1c-0.8,0.7-1.1,1.7-1.1,3v20.1H286.2z"/>
		<path d="M302.3,528.3v-29.8h6v3.2c0.9-0.8,1.6-1.4,2.2-1.8s1.3-0.8,2.3-1.2c1-0.4,2-0.6,3.2-0.6c1.3,0,2.3,0.5,3.1,1.4
			c0.8,0.9,1.2,2.1,1.2,3.4v25.4h-6V506c0-1-0.1-1.8-0.4-2.3c-0.3-0.5-0.9-0.7-1.8-0.7c-0.5,0-1,0.1-1.5,0.3
			c-0.5,0.2-0.9,0.4-1.1,0.6c-0.2,0.2-0.6,0.5-1.1,0.8v23.6H302.3z"/>
		<path d="M333.2,528.7c-2.5,0-4.4-0.7-5.9-2.2c-1.5-1.5-2.5-3.3-3-5.7l4.5-1.5c1.1,3,2.6,4.5,4.5,4.5c0.9,0,1.7-0.3,2.2-0.8
			c0.5-0.5,0.8-1.3,0.8-2.2c0-1.4-0.5-2.5-1.5-3.4l-6-4.5c-0.7-0.4-1.2-0.9-1.7-1.3c-0.4-0.4-0.9-0.9-1.4-1.5
			c-0.5-0.6-0.8-1.2-1.1-1.9s-0.4-1.5-0.4-2.3c0-2.5,0.8-4.5,2.4-5.8c1.6-1.3,3.8-2,6.5-2c1.3,0,2.5,0.2,3.5,0.6
			c1,0.4,1.9,1,2.6,1.7c0.7,0.7,1.3,1.6,1.7,2.5s0.8,1.9,1.1,3l-4.5,1.5c-0.2-0.6-0.4-1.1-0.7-1.5s-0.5-0.9-0.9-1.4
			c-0.4-0.5-0.8-0.9-1.3-1.2c-0.5-0.3-1-0.4-1.7-0.4c-0.9,0-1.7,0.3-2.2,0.8c-0.5,0.5-0.8,1.3-0.8,2.2c0,0.9,0.5,1.8,1.5,2.5l6,4.5
			c0.7,0.5,1.2,1,1.7,1.5c0.5,0.5,0.9,1.1,1.4,1.7s0.8,1.4,1,2.2s0.3,1.6,0.3,2.5c0,2.5-0.8,4.5-2.4,5.8S335.9,528.7,333.2,528.7z"
			/>
		<path d="M357,528.3V503h-3v-4.5h3v-1.1c0-1.3,0-2.3,0.1-3.2c0.1-0.9,0.3-1.7,0.6-2.5c0.3-0.8,0.7-1.5,1.2-2c0.5-0.5,1.1-0.9,2-1.2
			c0.8-0.3,1.8-0.4,2.9-0.4c1,0,2.2,0.1,3.7,0.3v4.4c-0.2,0-0.5-0.1-1-0.1c-0.5-0.1-0.8-0.1-1-0.1c-1,0-1.7,0.3-2,0.9
			c-0.3,0.6-0.5,1.6-0.5,2.8v2.2h4.5v4.5h-4.5v25.3H357z"/>
		<path d="M385.3,525.9c-1.4,1.9-3.7,2.8-6.9,2.8c-3.2,0-5.5-0.9-6.9-2.8c-1.4-1.9-2.1-4.5-2.1-8v-8.9c0-3.5,0.7-6.2,2.1-8
			c1.4-1.9,3.7-2.8,6.9-2.8c3.2,0,5.5,0.9,6.9,2.8c1.4,1.9,2.1,4.5,2.1,8v8.9C387.3,521.4,386.7,524,385.3,525.9z M377.3,523.6
			c0.3,0.1,0.7,0.2,1.1,0.2c0.4,0,0.8-0.1,1.1-0.2c0.3-0.1,0.6-0.3,0.8-0.5s0.4-0.4,0.5-0.8c0.1-0.3,0.2-0.7,0.3-0.9
			c0.1-0.3,0.1-0.6,0.2-1.1s0.1-0.9,0.1-1.2c0-0.3,0-0.7,0-1.3v-8.9c0-0.6,0-1,0-1.3c0-0.3,0-0.7-0.1-1.2c0-0.5-0.1-0.9-0.2-1.1
			c-0.1-0.3-0.2-0.6-0.3-0.9s-0.3-0.6-0.5-0.8c-0.2-0.2-0.5-0.3-0.8-0.5s-0.7-0.2-1.1-0.2c-0.4,0-0.8,0.1-1.1,0.2s-0.6,0.3-0.8,0.5
			c-0.2,0.2-0.4,0.4-0.5,0.8s-0.2,0.7-0.3,0.9c-0.1,0.3-0.1,0.6-0.2,1.1c0,0.5-0.1,0.9-0.1,1.2c0,0.3,0,0.7,0,1.3v8.9
			c0,0.6,0,1,0,1.3c0,0.3,0,0.7,0.1,1.2s0.1,0.9,0.2,1.1c0.1,0.3,0.2,0.6,0.3,0.9c0.1,0.3,0.3,0.6,0.5,0.8S377,523.5,377.3,523.6z"
			/>
		<path d="M392.2,528.3v-29.8h6v4c0.6-1.2,1.5-2.2,2.6-3.1c1.2-0.9,2.4-1.3,3.8-1.3c0,0,0.4,0,1,0.1v6.6c-1.1-0.4-2.2-0.7-3.3-0.7
			c-1.2,0-2.2,0.4-3,1.1c-0.8,0.7-1.1,1.7-1.1,3v20.1H392.2z"/>
		<path d="M423,528.3l-7.4-41.7h6l3,19.4l1.5,11.9l1.5-11.9l3-19.4h6l3,19.4l1.5,11.9l1.5-11.9l3-19.4h6l-7.4,41.7h-6l-3-19.4
			l-1.5-11.9l-1.5,11.9l-3,19.4H423z"/>
		<path d="M461.5,528.7c-1.4,0-2.7-0.2-3.8-0.7c-1.1-0.5-1.9-1.1-2.5-1.9c-0.6-0.8-1.1-1.8-1.5-3.1c-0.4-1.2-0.7-2.5-0.8-3.7
			c-0.1-1.2-0.2-2.7-0.3-4.4c0-1.3,0-2.6,0-3.9c0-1.6,0.2-2.9,0.3-4.1c0.2-1.2,0.4-2.4,0.8-3.5c0.4-1.1,0.9-2.1,1.6-2.8
			c0.6-0.7,1.5-1.3,2.5-1.8c1-0.4,2.3-0.7,3.7-0.7c1.3,0,2.4,0.2,3.4,0.5c1,0.3,1.8,0.8,2.4,1.5c0.6,0.7,1.2,1.4,1.6,2.2
			c0.4,0.8,0.7,1.8,1,3s0.4,2.3,0.5,3.5c0.1,1.1,0.1,2.4,0.1,3.9v0.7h-11.9v1.5c0,0.2,0,0.5,0,1c0,0.6,0,1.2,0,1.8
			c0,0.6,0.1,1.2,0.1,1.8s0.1,1.2,0.3,1.7c0.1,0.5,0.3,1,0.5,1.4c0.2,0.4,0.5,0.7,0.8,1c0.4,0.2,0.8,0.3,1.3,0.3
			c0.6,0,1.1-0.1,1.5-0.4c0.4-0.2,0.7-0.6,0.9-1.1s0.3-1,0.4-1.4c0.1-0.5,0.1-1.1,0.1-1.8v-1.3h5.9v1.2c-0.1,3.2-0.9,5.6-2.3,7.2
			C466.6,527.9,464.4,528.7,461.5,528.7z M458.5,510.4h5.9v-1.8c0-0.8-0.1-1.5-0.1-2.1c-0.1-0.6-0.2-1.2-0.4-1.8
			c-0.2-0.6-0.5-1-0.9-1.3c-0.4-0.3-0.9-0.5-1.5-0.5c-0.6,0-1.1,0.2-1.5,0.5c-0.4,0.3-0.7,0.8-0.9,1.4c-0.2,0.6-0.3,1.2-0.4,1.8
			c-0.1,0.6-0.1,1.3-0.1,2.1V510.4z"/>
		<path d="M486.6,528.7c-1.2,0-2.3-0.3-3.2-0.9s-1.8-1.3-2.7-2.3v2.7h-6v-41.7h6v14.8c0.6-0.6,1-1,1.3-1.3c0.3-0.3,0.7-0.6,1.2-1
			c0.5-0.4,1.1-0.7,1.7-0.8c0.6-0.2,1.2-0.2,1.9-0.2c1,0,1.9,0.2,2.7,0.5s1.4,0.8,2,1.3c0.5,0.5,0.9,1.2,1.3,2.2
			c0.4,1,0.6,1.8,0.8,2.6c0.2,0.8,0.3,1.8,0.4,3.1c0.1,1.3,0.1,2.4,0.2,3.2c0,0.8,0,1.9,0,3.4v0.4c0,1.3-0.1,2.6-0.2,3.8
			c-0.1,1.2-0.4,2.4-0.7,3.7c-0.3,1.3-0.8,2.3-1.3,3.3s-1.2,1.7-2.1,2.2C488.8,528.4,487.8,528.7,486.6,528.7z M485.2,523.8
			c0.6,0,1.2-0.2,1.6-0.7s0.7-1.1,0.9-2s0.3-1.7,0.4-2.6c0.1-0.9,0.1-1.8,0.1-3c0-0.8,0-1.9,0-3.3c0-1.4,0-2.4,0-3.1
			c0-0.7,0-1.3,0-1.8c0-0.5-0.1-1.1-0.2-1.6s-0.3-1-0.5-1.4c-0.2-0.4-0.5-0.7-0.9-0.9s-0.8-0.4-1.3-0.4c-1.6,0-3.1,0.4-4.5,1.2v18.7
			C482.2,523.5,483.7,523.8,485.2,523.8z"/>
		<path d="M508.9,528.3v-41.7h10.4c6.9,0,10.4,4,10.4,11.9c0,3.4-0.9,6-2.7,7.8s-4.4,2.7-7.7,2.7h-4.5v19.4H508.9z M514.9,504.5h1.5
			c1.3,0,2.5-0.1,3.3-0.2c0.9-0.2,1.6-0.4,2.3-0.9c0.7-0.4,1.1-1,1.4-1.8c0.3-0.8,0.4-1.8,0.4-3c0-1.5-0.1-2.7-0.3-3.6
			s-0.6-1.7-1.2-2.3c-0.6-0.6-1.3-1-2.3-1.2s-2.1-0.3-3.7-0.3h-1.5V504.5z"/>
		<path d="M532.9,528.3v-29.8h6v4c0.6-1.2,1.5-2.2,2.6-3.1c1.2-0.9,2.4-1.3,3.8-1.3c0,0,0.4,0,1,0.1v6.6c-1.1-0.4-2.2-0.7-3.3-0.7
			c-1.2,0-2.2,0.4-3,1.1s-1.1,1.7-1.1,3v20.1H532.9z"/>
		<path d="M564,525.9c-1.4,1.9-3.7,2.8-6.9,2.8s-5.5-0.9-6.9-2.8c-1.4-1.9-2.1-4.5-2.1-8v-8.9c0-3.5,0.7-6.2,2.1-8
			c1.4-1.9,3.7-2.8,6.9-2.8s5.5,0.9,6.9,2.8c1.4,1.9,2.1,4.5,2.1,8v8.9C566.1,521.4,565.4,524,564,525.9z M556,523.6
			c0.3,0.1,0.7,0.2,1.1,0.2s0.8-0.1,1.1-0.2c0.3-0.1,0.6-0.3,0.8-0.5c0.2-0.2,0.4-0.4,0.5-0.8c0.1-0.3,0.2-0.7,0.3-0.9
			c0.1-0.3,0.1-0.6,0.2-1.1c0-0.5,0.1-0.9,0.1-1.2c0-0.3,0-0.7,0-1.3v-8.9c0-0.6,0-1,0-1.3c0-0.3,0-0.7-0.1-1.2
			c0-0.5-0.1-0.9-0.2-1.1c-0.1-0.3-0.2-0.6-0.3-0.9c-0.1-0.3-0.3-0.6-0.5-0.8c-0.2-0.2-0.5-0.3-0.8-0.5s-0.7-0.2-1.1-0.2
			s-0.8,0.1-1.1,0.2c-0.3,0.1-0.6,0.3-0.8,0.5c-0.2,0.2-0.4,0.4-0.5,0.8s-0.2,0.7-0.3,0.9c-0.1,0.3-0.1,0.6-0.2,1.1
			c0,0.5-0.1,0.9-0.1,1.2c0,0.3,0,0.7,0,1.3v8.9c0,0.6,0,1,0,1.3c0,0.3,0,0.7,0.1,1.2s0.1,0.9,0.2,1.1c0.1,0.3,0.2,0.6,0.3,0.9
			c0.1,0.3,0.3,0.6,0.5,0.8S555.7,523.5,556,523.6z"/>
		<path d="M580.4,537.2c-0.7,0-1.3,0-1.8,0s-1.1,0-1.9-0.1c-0.8,0-1.5-0.1-2-0.2c-0.5-0.1-1.2-0.2-1.9-0.3c-0.7-0.1-1.3-0.3-1.7-0.5
			s-0.9-0.5-1.3-0.8s-0.7-0.7-0.9-1.1s-0.3-0.9-0.3-1.4c0-1.6,0.4-2.9,1.2-4c0.8-1.1,1.9-2,3.2-2.6c-0.8-0.2-1.5-0.5-2.1-1
			s-0.9-1-0.9-1.6c0-0.3,0-0.5,0.1-0.8c0.1-0.3,0.1-0.6,0.2-0.8c0.1-0.2,0.2-0.5,0.4-0.8c0.2-0.3,0.3-0.6,0.4-0.7
			c0.1-0.2,0.3-0.4,0.5-0.7c0.2-0.3,0.4-0.5,0.5-0.7c0.1-0.1,0.3-0.3,0.5-0.6s0.4-0.5,0.4-0.5c-2-2.4-3-5.3-3-8.9
			c0-2.1,0.3-3.9,1-5.5c0.7-1.6,1.7-2.9,3-3.9c1.4-1,3-1.5,4.9-1.5c1.1,0,2.1,0.2,2.9,0.5s1.5,0.7,2,1.2c0.5,0.5,1,1.1,1.5,1.9
			c1.2-2.2,2.9-3.3,5-3.5c0,0,0.1,0,0.1,0c0,0,0.1,0,0.2,0c0.1,0,0.1,0,0.2,0v4.9c-0.1,0-0.2,0-0.4,0c-0.7,0-1.2,0-1.5,0
			c-0.3,0-0.7,0.1-1.1,0.2c-0.4,0.1-0.8,0.3-1,0.5c0.3,0.6,0.5,1.4,0.7,2.4s0.3,1.9,0.3,2.8c0,2.1-0.3,3.9-0.9,5.5s-1.6,2.9-3,3.8
			s-3,1.4-5,1.4l-3-0.3c0,0.1-0.1,0.2-0.2,0.4c-0.1,0.2-0.2,0.4-0.3,0.5c-0.1,0.1-0.1,0.3-0.2,0.5s-0.1,0.4-0.1,0.5
			c0,0.4,0.2,0.7,0.6,1c0.4,0.3,0.9,0.5,1.6,0.6c0.7,0.1,1.3,0.2,2,0.3c0.6,0.1,1.3,0.1,2.1,0.2c0.8,0,1.3,0.1,1.6,0.1
			c0.9,0.1,1.7,0.3,2.4,0.4c0.7,0.2,1.4,0.4,2.1,0.7c0.7,0.3,1.3,0.7,1.8,1.1s0.8,1,1.2,1.7c0.3,0.7,0.5,1.5,0.5,2.3
			c0,1.1-0.2,2.1-0.6,2.9c-0.4,0.9-0.9,1.6-1.5,2.1c-0.6,0.6-1.4,1-2.3,1.4c-0.9,0.4-1.8,0.6-2.8,0.8S581.5,537.2,580.4,537.2z
			 M580.4,532.8c0.4,0,0.8,0,1.1,0c0.3,0,0.7,0,1.2-0.1s0.8-0.1,1.1-0.2c0.3-0.1,0.6-0.2,0.9-0.4c0.3-0.2,0.5-0.4,0.7-0.6
			c0.2-0.3,0.2-0.5,0.2-0.9c0-1.7-1.6-2.7-4.8-3l-4.9-0.6c-0.6,0.4-1.1,1.1-1.5,1.9c-0.4,0.8-0.6,1.7-0.6,2.6c0,0.2,0.1,0.5,0.3,0.6
			s0.4,0.3,0.8,0.4c0.3,0.1,0.7,0.2,1,0.2c0.3,0.1,0.8,0.1,1.2,0.1s0.9,0,1.2,0c0.3,0,0.7,0,1.2,0S580.2,532.8,580.4,532.8z
			 M578.9,515.3c2.5,0,3.7-2.1,3.7-6.3c0-0.9-0.1-1.6-0.2-2.4c-0.1-0.7-0.3-1.4-0.6-2.1c-0.3-0.7-0.7-1.2-1.2-1.6
			c-0.5-0.4-1.1-0.6-1.8-0.6c-0.7,0-1.3,0.2-1.9,0.6c-0.5,0.4-0.9,0.9-1.2,1.6s-0.4,1.4-0.5,2.1c-0.1,0.7-0.2,1.5-0.2,2.4
			C575.1,513.1,576.4,515.3,578.9,515.3z"/>
		<path d="M592.5,528.3v-29.8h6v4c0.6-1.2,1.5-2.2,2.6-3.1c1.2-0.9,2.4-1.3,3.8-1.3c0,0,0.4,0,1,0.1v6.6c-1.1-0.4-2.2-0.7-3.3-0.7
			c-1.2,0-2.2,0.4-3,1.1c-0.8,0.7-1.1,1.7-1.1,3v20.1H592.5z"/>
		<path d="M613.8,528.7c-1.7,0-3.1-0.7-4.2-2.2c-1.2-1.4-1.7-3.1-1.7-4.8c0-1.4,0.2-2.8,0.7-3.9c0.5-1.2,1-2.1,1.5-2.8
			c0.5-0.7,1.4-1.4,2.7-2.2c1.3-0.8,2.2-1.3,2.9-1.5c0.7-0.3,1.8-0.7,3.4-1.4c0.3-0.1,0.5-0.2,0.6-0.3v-2.1c0-1.5-0.2-2.7-0.6-3.5
			c-0.4-0.8-1.2-1.2-2.3-1.2c-1,0-1.8,0.4-2.2,1.1s-0.7,1.7-0.8,2.9c0,0.2,0,0.4,0,0.8h-6c0-2.9,0.8-5.1,2.4-6.8
			c1.6-1.7,3.7-2.5,6.5-2.5c2.8,0,5,0.9,6.5,2.6s2.4,4,2.4,6.8v13.4c0,3.1,0.3,5.6,0.8,7.4h-5.9l-0.8-4.5c-0.3,0.6-0.6,1.1-0.8,1.4
			c-0.2,0.3-0.5,0.8-0.8,1.3c-0.4,0.5-0.7,0.9-1.1,1.2c-0.4,0.3-0.8,0.5-1.4,0.7C615,528.6,614.4,528.7,613.8,528.7z M616.7,523.8
			c0.4,0,0.8-0.1,1.2-0.4s0.7-0.5,0.9-0.7s0.4-0.5,0.7-0.9c0-0.1,0.1-0.1,0.1-0.2v-8.2c-0.2,0.2-0.7,0.4-1.2,0.8
			c-0.6,0.4-1,0.6-1.4,0.9c-0.3,0.2-0.8,0.5-1.2,0.9c-0.5,0.4-0.9,0.8-1.1,1.1c-0.3,0.4-0.5,0.8-0.7,1.3c-0.2,0.5-0.3,1.1-0.3,1.7
			C613.8,522.6,614.8,523.8,616.7,523.8z"/>
		<path d="M630.8,528.3v-29.8h6v3.4c2.1-2.5,4.6-3.8,7.4-3.8c1.4,0,2.5,0.3,3.1,0.9c0.7,0.6,1.1,1.6,1.3,3c1-1.3,2-2.3,3.2-2.9
			s2.6-1,4.3-1c0.5,0,0.9,0.1,1.3,0.2c0.4,0.1,0.7,0.2,1,0.4c0.3,0.1,0.6,0.4,0.8,0.6c0.2,0.3,0.4,0.6,0.6,0.8s0.3,0.6,0.4,1
			c0.1,0.4,0.2,0.8,0.2,1.1c0,0.3,0.1,0.7,0.1,1.3s0,1,0,1.3c0,0.3,0,0.8,0,1.5c0,0.1,0,0.2,0,0.3v21.7h-6v-21.7c0-0.1,0-0.2,0-0.4
			c0-0.5,0-0.9,0-1.2c0-0.3-0.1-0.6-0.2-1c-0.1-0.4-0.2-0.6-0.5-0.8c-0.2-0.2-0.5-0.3-0.9-0.3c-0.6,0-1.2,0.1-1.8,0.4
			s-1.1,0.5-1.4,0.7c-0.3,0.2-0.7,0.5-1.2,0.9v23.3h-6v-21.6c0-0.1,0-0.2,0-0.4c0-0.4,0-0.8,0-1s0-0.5-0.1-0.8
			c-0.1-0.3-0.1-0.6-0.2-0.8c-0.1-0.2-0.2-0.3-0.4-0.5s-0.4-0.2-0.7-0.2c-1.5,0-2.9,0.6-4.5,1.9v23.4H630.8z"/>
		<path d="M665.8,528.3v-29.8h6v3.4c2.1-2.5,4.6-3.8,7.4-3.8c1.4,0,2.5,0.3,3.1,0.9c0.7,0.6,1.1,1.6,1.3,3c1-1.3,2-2.3,3.2-2.9
			s2.6-1,4.3-1c0.5,0,0.9,0.1,1.3,0.2c0.4,0.1,0.7,0.2,1,0.4c0.3,0.1,0.6,0.4,0.8,0.6c0.2,0.3,0.4,0.6,0.6,0.8s0.3,0.6,0.4,1
			c0.1,0.4,0.2,0.8,0.2,1.1c0,0.3,0.1,0.7,0.1,1.3c0,0.6,0,1,0,1.3c0,0.3,0,0.8,0,1.5c0,0.1,0,0.2,0,0.3v21.7h-6v-21.7
			c0-0.1,0-0.2,0-0.4c0-0.5,0-0.9,0-1.2c0-0.3-0.1-0.6-0.2-1c-0.1-0.4-0.2-0.6-0.5-0.8c-0.2-0.2-0.5-0.3-0.9-0.3
			c-0.6,0-1.2,0.1-1.8,0.4s-1.1,0.5-1.4,0.7c-0.3,0.2-0.7,0.5-1.2,0.9v23.3h-6v-21.6c0-0.1,0-0.2,0-0.4c0-0.4,0-0.8,0-1
			s0-0.5-0.1-0.8c-0.1-0.3-0.1-0.6-0.2-0.8c-0.1-0.2-0.2-0.3-0.4-0.5s-0.4-0.2-0.7-0.2c-1.5,0-2.9,0.6-4.5,1.9v23.4H665.8z"/>
		<path d="M701,494v-6h6v6H701z M701,528.3v-29.8h6v29.8H701z"/>
		<path d="M712.7,528.3v-29.8h6v3.2c0.9-0.8,1.6-1.4,2.2-1.8c0.6-0.4,1.3-0.8,2.3-1.2c1-0.4,2-0.6,3.2-0.6c1.3,0,2.3,0.5,3.1,1.4
			c0.8,0.9,1.2,2.1,1.2,3.4v25.4h-6V506c0-1-0.1-1.8-0.4-2.3c-0.3-0.5-0.9-0.7-1.8-0.7c-0.5,0-1,0.1-1.5,0.3
			c-0.5,0.2-0.9,0.4-1.1,0.6s-0.6,0.5-1.1,0.8v23.6H712.7z"/>
		<path d="M745.2,537.2c-0.7,0-1.3,0-1.8,0s-1.1,0-1.9-0.1c-0.8,0-1.5-0.1-2-0.2c-0.5-0.1-1.2-0.2-1.9-0.3c-0.7-0.1-1.3-0.3-1.7-0.5
			s-0.9-0.5-1.3-0.8s-0.7-0.7-0.9-1.1s-0.3-0.9-0.3-1.4c0-1.6,0.4-2.9,1.2-4c0.8-1.1,1.9-2,3.2-2.6c-0.8-0.2-1.5-0.5-2.1-1
			c-0.6-0.4-0.9-1-0.9-1.6c0-0.3,0-0.5,0.1-0.8c0.1-0.3,0.1-0.6,0.2-0.8c0.1-0.2,0.2-0.5,0.4-0.8c0.2-0.3,0.3-0.6,0.4-0.7
			c0.1-0.2,0.3-0.4,0.5-0.7c0.2-0.3,0.4-0.5,0.5-0.7c0.1-0.1,0.3-0.3,0.5-0.6c0.2-0.3,0.4-0.5,0.4-0.5c-2-2.4-3-5.3-3-8.9
			c0-2.1,0.3-3.9,1-5.5c0.7-1.6,1.7-2.9,3-3.9c1.4-1,3-1.5,4.9-1.5c1.1,0,2.1,0.2,2.9,0.5c0.8,0.3,1.5,0.7,2,1.2
			c0.5,0.5,1,1.1,1.5,1.9c1.2-2.2,2.9-3.3,5-3.5c0,0,0.1,0,0.1,0c0,0,0.1,0,0.2,0s0.1,0,0.2,0v4.9c-0.1,0-0.2,0-0.4,0
			c-0.7,0-1.2,0-1.5,0c-0.3,0-0.7,0.1-1.1,0.2s-0.8,0.3-1,0.5c0.3,0.6,0.5,1.4,0.7,2.4s0.3,1.9,0.3,2.8c0,2.1-0.3,3.9-0.9,5.5
			s-1.6,2.9-3,3.8s-3,1.4-5,1.4l-3-0.3c0,0.1-0.1,0.2-0.2,0.4c-0.1,0.2-0.2,0.4-0.3,0.5c-0.1,0.1-0.1,0.3-0.2,0.5s-0.1,0.4-0.1,0.5
			c0,0.4,0.2,0.7,0.6,1c0.4,0.3,0.9,0.5,1.6,0.6c0.7,0.1,1.3,0.2,2,0.3c0.6,0.1,1.3,0.1,2.1,0.2c0.8,0,1.3,0.1,1.6,0.1
			c0.9,0.1,1.7,0.3,2.4,0.4c0.7,0.2,1.4,0.4,2.1,0.7c0.7,0.3,1.3,0.7,1.8,1.1s0.8,1,1.2,1.7c0.3,0.7,0.5,1.5,0.5,2.3
			c0,1.1-0.2,2.1-0.6,2.9c-0.4,0.9-0.9,1.6-1.5,2.1c-0.6,0.6-1.4,1-2.3,1.4c-0.9,0.4-1.8,0.6-2.8,0.8
			C747.4,537.1,746.3,537.2,745.2,537.2z M745.2,532.8c0.4,0,0.8,0,1.1,0c0.3,0,0.7,0,1.2-0.1s0.8-0.1,1.1-0.2
			c0.3-0.1,0.6-0.2,0.9-0.4c0.3-0.2,0.5-0.4,0.7-0.6c0.2-0.3,0.2-0.5,0.2-0.9c0-1.7-1.6-2.7-4.8-3l-4.9-0.6
			c-0.6,0.4-1.1,1.1-1.5,1.9c-0.4,0.8-0.6,1.7-0.6,2.6c0,0.2,0.1,0.5,0.3,0.6s0.4,0.3,0.8,0.4c0.3,0.1,0.7,0.2,1,0.2
			c0.3,0.1,0.8,0.1,1.2,0.1s0.9,0,1.2,0c0.3,0,0.7,0,1.2,0C744.7,532.8,745,532.8,745.2,532.8z M743.7,515.3c2.5,0,3.7-2.1,3.7-6.3
			c0-0.9-0.1-1.6-0.2-2.4c-0.1-0.7-0.3-1.4-0.6-2.1s-0.7-1.2-1.2-1.6c-0.5-0.4-1.1-0.6-1.8-0.6c-0.7,0-1.3,0.2-1.9,0.6
			c-0.5,0.4-0.9,0.9-1.2,1.6s-0.4,1.4-0.5,2.1c-0.1,0.7-0.2,1.5-0.2,2.4C740,513.1,741.2,515.3,743.7,515.3z"/>
	</g>
</g>
</svg>
